<?xml version="1.0" encoding="UTF-8"?>
<svg width="835px" height="786px" viewBox="0 0 835 786" version="1.1" xmlns="http://www.w3.org/2000/svg" xmlns:xlink="http://www.w3.org/1999/xlink">
    <!-- Generator: Sketch 51.1 (57501) - http://www.bohemiancoding.com/sketch -->
    <title>back</title>
    <desc>Created with Sketch.</desc>
    <defs></defs>
    <g id="Page-1" stroke="none" stroke-width="1" fill="none" fill-rule="evenodd">
        <g id="back" transform="translate(15.000000, 15.000000)" stroke="#12B1E6">
            <path d="M599.656151,13.3044064 C495.672989,10.0250849 383.307733,-20.6923423 286.065296,24.1543713 C261.264513,35.5921101 239.671837,51.0927628 216.800976,66.3718627 C214.381543,67.9881882 211.391346,68.583391 209.107383,70.405824 C135.446042,129.182105 201.326176,78.4500979 152.086867,120.969442 C94.781664,170.453883 108.995682,152.317726 64.3799059,201.069076 C52.9003008,213.612761 43.2912046,236.985102 36.4851355,251.284939 C5.70354874,315.958344 -13.2046196,420.270708 11.0523149,487.944002 C19.0444902,510.241 15.2629852,494.53323 24.1534048,507.673318 C54.6724759,552.780671 -20.3389426,452.05484 37.5622385,529.929656 C52.6372124,550.204904 78.8329757,576.524708 92.8681821,590.462259 C101.836949,599.368622 111.910798,606.968458 121.004751,615.732477 C145.347503,639.192059 137.631912,638.355422 168.265394,656.813968 C191.210415,670.639744 213.449687,678.970491 237.815476,688.761086 C250.330038,693.789654 262.337931,700.190235 274.96454,704.896931 C334.279705,727.007259 357.519964,733.023128 420.659212,746.302994 C435.159699,749.352833 449.717951,752.829834 464.490711,753.489936 C488.415173,754.558972 571.393391,761.316491 612.62535,746.882586 C633.837636,739.456887 658.569743,724.753781 677.779093,712.385262 C699.824383,698.190738 721.071153,681.032385 736.580126,658.97005 C751.819053,637.29187 755.671534,609.226249 762.914196,584.109929 C771.812719,553.251366 782.030712,522.820658 790.611131,491.862044 C805.012746,439.900243 807.009781,389.922772 803.492404,335.279432 C800.910573,295.170025 778.583544,256.765755 757.682553,224.901905 C659.56979,75.3276413 610.507239,21.212121 605.256188,13.3044064 C592.415861,-6.0322265 782.76265,264.439916 730.886867,189.384499 C718.4106,171.333467 727.712232,179.266634 711.894683,162.584158 C678.127595,126.970637 654.901765,63.1662452 623.567195,24.1543713 L599.656151,13.3044064 Z" id="Path-12" stroke-width="30"></path>
            <path d="M209,529.153188 C234.616127,550.506233 268.403865,577.937329 300.175732,589.931729 C332.84641,602.265444 359.962003,609.803695 394.354925,610.377554 C426.702632,610.917287 459.074637,611.455165 491.410223,610.377554 C531.208932,609.051227 595.008533,577.527922 626.5978,556.786911 C641.904128,546.737019 652.33166,526.580984 660.983712,511.244926 C680.661293,476.365742 684.090858,455.01662 684.735462,415.488262 C685.180535,388.195575 688.0592,369.008054 686.582113,340.680465 C686.349162,336.212928 685.002249,331.865824 683.71662,327.601397 C678.544365,310.445044 673.749066,293.106948 667.224118,276.470066 C654.892145,245.026814 634.240085,212.816081 608.852971,191.221372 C589.230399,174.53008 556.854172,164.642346 531.919799,163.878295 C505.670963,163.073965 479.36185,162.389506 453.139976,163.878295 C427.753317,165.319663 404.556263,198.462926 389.536652,213.925293 C380.275136,223.459824 369.657598,231.50835 360.764983,241.424872 C337.973174,266.840955 292.510513,320.191214 270.661157,354.709722 C253.553403,381.737254 256.262578,385.236427 244.372915,412.894806 C244.193433,413.312326 243.094986,413.352219 243.067524,412.894806 C242.115871,397.044097 245.028435,382.781673 245.688919,367.419893 C247.542789,324.301919 241.430025,345.521478 253.022458,299.855887 C255.282344,290.953611 273.089129,253.857739 270.215414,243.928898 C270.00187,243.191093 268.235915,260.916108 267.503622,260.916108" id="Path-13" stroke-width="15"></path>
            <path d="M238,424 C255.936057,406.088938 276.262798,396.817076 297.152389,382.809857 C342.736209,352.244275 296.152315,380.714721 334.125289,350.4414 C353.747694,334.797764 379.764689,317.478857 404.308972,311 C407.113585,311.777811 400.65614,312.739555 397.882376,313.630634" id="Path-14" stroke-width="15"></path>
        </g>
    </g>
</svg>