<?xml version="1.0" encoding="UTF-8"?>
<svg width="1461px" height="2259px" viewBox="0 0 1461 2259" version="1.1" xmlns="http://www.w3.org/2000/svg" xmlns:xlink="http://www.w3.org/1999/xlink">
    <!-- Generator: Sketch 51.1 (57501) - http://www.bohemiancoding.com/sketch -->
    <title>enter</title>
    <desc>Created with Sketch.</desc>
    <defs></defs>
    <g id="Page-1" stroke="none" stroke-width="1" fill="none" fill-rule="evenodd">
        <g id="enter" transform="translate(15.000000, 19.000000)" stroke="#12B1E6">
            <path d="M1331.09413,0 C1363.25849,541.638294 1400.89772,1082.82228 1427.58722,1624.91488 C1435.20339,1779.60751 1428.74386,1931.55083 1421.17857,2084.64033 C1420.67193,2094.89247 1421.33504,2106.26898 1416.97532,2115.01287 C1413.67098,2121.64006 1405.63344,2121.89982 1400.42178,2126.27027 C1386.93834,2137.57738 1374.95872,2151.61144 1360.98389,2161.96683 C1300.08045,2207.09646 1210.99828,2206.85713 1142.67443,2208.18312 C911.743899,2212.6649 682.543377,2217.56233 451.343811,2213.73164 C398.660908,2212.85875 345.953664,2212.18405 293.280906,2213.73164 C242.846486,2215.21347 249.788192,2231.73902 188.848339,2219.53674 C183.45928,2218.45767 180.69823,2210.23507 178.00292,2204.36651 C167.177567,2180.79623 156.383094,2156.98326 148.502342,2131.6905 C118.645029,2035.86544 94.1519107,1937.59162 64.9303428,1841.46757 C20.2408058,1694.46179 31.5843809,1796.51446 4.08702169,1598.03823 C0.718812946,1573.72646 -6.53167437,1503.69292 13.5054121,1476.96501 C18.1161294,1470.81467 26.4057513,1471.61061 33.0686804,1470.03738 C74.5670103,1460.23887 115.821201,1447.62097 157.894786,1442.87207 C399.880646,1415.55885 252.349691,1468.57268 549.23799,1438.22158 C557.210501,1437.40654 558.263329,1421.82106 561.847736,1412.98062 C567.376241,1399.34532 573.205822,1385.66171 576.507214,1370.96581 C585.563265,1330.65347 593.450926,1289.82646 598.79481,1248.51347 C603.885471,1209.15813 605.45884,1169.21564 607.746173,1129.46081 C614.186065,1017.53272 617.944817,905.376535 624.974303,793.502667 C629.215907,725.997788 636.847131,658.872388 641.553784,591.414623 C642.377202,579.613036 640.979748,567.702555 641.553784,555.878429 C642.857991,529.014077 646.195332,502.325825 647.184061,475.440909 C649.448415,413.870018 644.708119,351.69972 651.309472,290.607803 C653.01311,274.841561 662.985719,261.846663 671.547336,249.972102 C710.063232,196.552364 742.048347,181.319213 798.864256,165.140667 C870.401637,144.770125 943.49548,133.103694 1014.70886,111.06664 C1209.28646,50.8543946 1007.58168,93.7989533 1176.0669,31.4950737 C1194.15639,24.8057916 1213.56749,26.0000065 1232.31778,23.252473 L1331.09413,0 Z" id="Path-2" stroke-width="30"></path>
            <path d="M1038.18661,786 C1038.18661,1073.67433 1042.26674,1361.39287 1038.18661,1649.023 C1037.81999,1674.86766 1040.56952,1707.72411 1024.86938,1724.8022 C990.93061,1761.71965 944.340309,1775.99685 902.366495,1796.76356 C826.602641,1834.24802 738.50067,1850.31029 657.542432,1853.71024 C615.071241,1855.49388 572.537907,1852.40548 530.055318,1853.71024 C514.34003,1854.1929 498.285959,1864.06451 483.094579,1859.06804 C472.388606,1855.54683 491.080383,1828.55414 492.388081,1827.30623 C672.73757,1655.20206 511.628851,1823.92417 598.406687,1720.34271 C598.934896,1719.71222 600.241862,1721.38298 599.990216,1722.23558 C578.100772,1796.4001 494.263892,1827.10619 465.390199,1899.428 C464.869645,1900.73187 461.048364,1901.43049 462.22314,1901.35296 C495.298314,1899.17022 531.30637,1890.0755 564.425699,1899.17134 C626.751185,1916.28831 698.251888,1963.83128 746.090293,2019" id="Path-3" stroke-width="15"></path>
        </g>
    </g>
</svg>