<?xml version="1.0" encoding="UTF-8"?>
<svg width="975px" height="446px" viewBox="0 0 975 446" version="1.1" xmlns="http://www.w3.org/2000/svg" xmlns:xlink="http://www.w3.org/1999/xlink">
    <!-- Generator: Sketch 51.1 (57501) - http://www.bohemiancoding.com/sketch -->
    <title>menu</title>
    <desc>Created with Sketch.</desc>
    <defs></defs>
    <g id="Page-1" stroke="none" stroke-width="1" fill="none" fill-rule="evenodd">
        <g id="menu" transform="translate(15.000000, 15.000000)" stroke="#12B1E6">
            <path d="M23.6183022,46.7263414 C23.6183022,83.1497763 22.2752351,119.579975 23.6183022,155.996646 C27.3691602,257.699502 36.9523203,163.619667 29.6820038,288.959155 C28.6307012,307.0835 2.57461208,364.395107 1.68147577,368.717348 C-1.40380756,383.648256 0.230188988,398.80876 2.79007496,413.76677 C3.67504735,418.937869 17.8075267,406.226339 21.7706369,405.401201 C32.0098354,403.269352 42.4978049,401.410973 53.1977443,400.028978 C59.2524127,399.246963 65.5794738,399.228155 71.7919761,398.940489 C116.134619,396.887229 160.443375,394.582459 204.857473,393.006465 C216.219649,392.603289 227.640929,393.211822 239.022484,393.006465 C264.139367,392.553283 289.267699,392.054053 314.323245,391.031383 C360.182622,389.159582 405.838724,386.026613 451.722357,384.324883 C477.033869,383.386131 502.474466,383.829991 527.812574,383.1135 C558.158131,382.255412 588.507927,381.24681 618.734504,379.602243 C649.84359,377.90966 680.972833,376.048441 711.739258,373.106418 C743.404541,370.078443 774.139833,364.700393 805.819017,361.712391 C819.990804,360.375698 834.520552,360.268373 848.920009,360.167438 C880.469621,359.946285 912.41578,363.355508 943.570865,360.746795 C949.467414,360.253059 935.349071,356.023014 933.207142,353.109812 C927.692717,345.609736 924.488998,337.692802 920.878175,329.88285 C910.040911,306.442622 899.604224,282.948981 889.870992,259.376818 C879.339819,233.872185 868.532396,208.380591 860.089986,182.66464 C852.320558,158.99862 856.911677,133.809217 855.571604,110.20986 C854.249702,86.9304883 850.720593,63.6972988 849.071182,40.4236358 C848.55332,33.1164541 846.62046,25.6862142 849.071182,18.4870604 C854.523845,2.46951192 862.538206,10.0267163 862.256794,0.114410332 C862.239981,-0.477787081 861.98688,1.40258161 861.131397,1.79103535 C857.282462,3.53874264 853.117607,5.15334419 848.550476,6.33811262 C842.196463,7.98641962 835.606415,9.607069 828.612488,10.2268293 C804.835482,12.3338062 780.796322,13.7356377 756.72151,14.4754497 C721.60657,15.5545218 686.394829,15.5719944 651.21982,15.6780551 C553.440759,15.9728814 455.645412,16.5123227 357.877755,15.6780551 C345.797543,15.5749727 333.887002,14.0895505 322.033048,12.8690498 C313.963264,12.0381729 306.235746,10.4455125 298.198166,9.5333561 C291.724971,8.79873624 285.181505,8.07129774 278.562522,7.93573436 C259.120971,7.53755197 239.569219,7.01259474 220.193095,7.93573436 C207.552756,8.53795994 195.356774,10.7166339 183.12221,12.4828116 C178.620393,13.1326925 174.575178,14.49237 170.087771,15.1689229 C143.16939,19.2273271 116.605844,24.256272 88.9752636,26.6770663 C72.4591854,28.1240873 55.4691404,26.3324213 38.7355639,26.6770663 C37.7343104,26.6976882 37.5423562,27.6772118 36.5519594,27.7567777 C30.2026881,28.2668618 23.6825467,27.9369724 17.3194432,28.3975821 C15.322493,28.5421365 12.7771091,28.6682003 11.6924624,29.5562967 C10.2046479,30.7745024 9.51302407,32.5404389 10.651051,33.857586 C15.8959682,39.9280289 26.260234,44.690684 30.2363034,51.0188526 C38.6689284,64.4399139 31.5107924,62.9352599 21.5690734,70.6379987 C21.1745778,70.9436497 21.5690734,72.1127265 21.5690734,71.7440445 C21.5690734,71.0125327 21.5690734,70.2810209 21.5690734,69.5495092 L23.6183022,46.7263414 Z" id="Path-8" stroke-width="30"></path>
            <path d="M213,114.986237 C263.225024,114.986237 213.088689,115.712752 310.348243,106.608802 C407.609843,97.5046609 485.169897,91.3383968 584.425902,93.4540809 C595.796521,93.6964505 606.417848,96.6797463 617.738094,97.2776282 C637.830336,98.3388054 658.141831,97.7153453 678.295021,98.411804 C683.941346,98.606931 681.525594,105.0879 692.329168,99.4772419 C694.422736,98.3899824 691.055576,96.4755479 689.858486,95.0780145 C688.330706,93.2944199 686.093637,91.6926715 684.211212,90" id="Path-9" stroke-width="15"></path>
            <path d="M258,215.309979 C361.734735,215.309979 465.507608,216.862526 569.204206,215.309979 C582.126206,215.116511 594.100492,211.382239 606.812677,210.08755 C621.096237,208.632822 635.724444,208.419658 650.043901,207.076754 C661.813438,205.972986 673.178097,203.702203 684.992507,202.755705 C694.366246,202.004739 704.226448,203.356286 713.375623,202.003006 C715.335721,201.713082 712.158357,199.829027 711.001946,198.908577 C709.599923,197.792631 707.556467,196.969526 705.833727,196" id="Path-10" stroke-width="15"></path>
            <path d="M271,317.649432 C398.368767,317.649432 525.73844,317.91298 653.1063,317.649432 C677.063474,317.59986 701.344964,318.930382 724.957931,316.71011 C743.219567,314.993012 759.652644,309.570037 777,306" id="Path-11" stroke-width="15"></path>
        </g>
    </g>
</svg>