<?xml version="1.0" encoding="UTF-8"?>
<svg width="928px" height="882px" viewBox="0 0 928 882" version="1.1" xmlns="http://www.w3.org/2000/svg" xmlns:xlink="http://www.w3.org/1999/xlink">
    <!-- Generator: Sketch 51.1 (57501) - http://www.bohemiancoding.com/sketch -->
    <title>right</title>
    <desc>Created with Sketch.</desc>
    <defs></defs>
    <g id="Page-1" stroke="none" stroke-width="1" fill="none" fill-rule="evenodd">
        <g id="right" transform="translate(464.000000, 440.500000) scale(-1, 1) translate(-464.000000, -440.500000) translate(16.000000, 15.000000)" stroke="#12B1E6">
            <path d="M1.06619992,100.315707 C1.06619992,134.65307 -1.3327499,169.109283 1.06619992,203.327795 C7.45828842,294.504257 36.2606146,380.768786 53.1618964,469.317219 C60.6216468,508.400007 60.0926124,572.029199 60.3637562,603.022705 C61.0123923,677.166035 60.7710362,751.318982 60.3637562,825.464746 C60.32838,831.905028 53.7800875,831.154449 59.1185749,840.561172 C61.6830283,845.079887 84.5920218,825.2907 94.2528818,822.581608 C105.353617,819.468748 116.643226,816.650705 128.041047,816.174637 C167.884746,814.51043 207.922137,812.137839 247.645766,816.174637 C284.011466,819.870195 319.270121,833.16357 355.404435,839.279778 C432.155342,852.270877 478.543027,852.081871 558.015637,849.831259 C589.511128,848.939327 633.172971,830.859955 662.762314,816.895421 C702.635659,798.077406 677.291196,800.646877 723.490146,785.240978 C743.557422,778.549172 764.332721,775.26047 784.537687,769.183506 C814.315187,760.227449 850.660279,746.639425 877.707542,735.987385 C883.40611,733.743114 891.539411,733.781747 894.197782,727.378017 C899.576389,714.421528 891.343536,683.613955 889.873301,670.416036 C886.151846,637.00952 882.904702,603.523419 880.130598,569.986759 C875.719031,516.654518 872.8516,463.150267 868.318201,409.832494 C863.388405,351.852654 852.594373,294.385963 855.260624,235.723044 C856.531773,207.755174 869.238121,162.955316 872.928738,143.302481 C880.256165,104.283335 885.251932,61.8719513 880.231558,21.9704591 C879.78371,18.4109978 874.321243,23.6893471 871.565769,25.1739448 C866.089244,28.1245941 861.243444,32.6617881 855.630813,35.2248813 C853.740433,36.0881518 851.560581,34.8821849 849.556347,35.2248813 C848.645125,35.3806876 848.003337,36.6744116 847.082811,36.6864716 C810.722353,37.1628374 774.322812,38.5755677 737.994826,36.6864716 C674.418296,33.3804207 610.889338,28.2103409 547.532556,21.1095223 C507.699936,16.6452139 468.489242,5.43521621 428.584081,2.00873861 C394.173065,-0.945981388 359.524716,-0.37817252 325.082586,2.00873861 C272.557142,5.64886102 209.731562,50.3728699 157.370116,67.8804139 C137.634787,74.4791075 117.181615,77.5443091 97.0292997,82.0157947 C93.533133,82.7915398 89.9999187,83.4839007 86.445258,83.6175376 C47.4435927,85.0837988 65.7219905,80.2759104 48.5345332,85.3594329 L1.06619992,100.315707 Z" id="Path-5" stroke-width="30"></path>
            <path d="M788,436.507825 C683.738619,436.507825 579.44699,433.103793 475.215857,436.507825 C445.550335,437.476656 416.291088,446.263582 386.720017,449.613025 C358.363999,452.824843 333.434321,452.430931 305.783283,454.53809 C255.649822,458.358531 212.109759,495.694041 161.241469,499.99587 C158.955907,500.189155 160.359241,493.548045 161.241469,490.683535 C162.857888,485.435175 165.664369,480.95581 168.424708,476.672575 C177.275752,462.938358 184.884958,446.990851 196.009183,436.734265 C213.848832,420.286027 249.516931,412.718318 269.428573,403.334402 C286.124914,395.465786 302.539617,386.451922 318.667175,376.642816 C328.358053,370.748628 337.645747,363.654047 346.773688,356.291543 C355.095235,349.579468 362.650105,341.219461 370.954476,334.468413 C373.437439,332.449885 376.708577,332.453948 379.014739,330.081142 C387.385765,321.468211 394.280129,310.405683 402.673491,301.832784 C407.226811,297.182065 412.859205,294.822902 417.645533,290.624016 C419.219819,289.242948 420.655648,287.403404 421.61302,285.217767 C422.071436,284.171226 421.076539,282.542409 421.61302,281.566426 C422.561147,279.841566 424.258012,279.188809 425.580507,278" id="Path-6" stroke-width="15"></path>
            <path d="M160,500.306349 C160.777442,500.306349 360.699634,481.736015 409.346693,521.722085 C502.1702,598.019551 412.28428,537.902449 465,572" id="Path-7" stroke-width="15"></path>
        </g>
    </g>
</svg>