<?xml version="1.0" encoding="UTF-8"?>
<svg width="532px" height="560px" viewBox="0 0 532 560" version="1.1" xmlns="http://www.w3.org/2000/svg" xmlns:xlink="http://www.w3.org/1999/xlink">
    <!-- Generator: Sketch 54 (76480) - https://sketchapp.com -->
    <title>shutdown</title>
    <desc>Created with Sketch.</desc>
    <g id="Page-1" stroke="none" stroke-width="1" fill="none" fill-rule="evenodd">
        <g id="shutdown" transform="translate(15.000000, 15.000000)" stroke="#12B1E6">
            <path d="M271.93667,4.0070809 C251.71548,4.0070809 231.490848,3.62729802 211.2731,4.0070809 C198.386738,4.24914641 184.896297,1.7796517 172.650869,5.87212777 C140.980756,16.4564196 136.669286,31.5177823 113.474863,49.4883724 C92.476782,65.7572786 70.0100678,79.9945495 48.9835375,96.225339 C42.2452011,101.426792 35.3054555,106.75691 30.2982872,113.693996 C14.1547024,136.059818 3.3289367,185.719884 1.94387332,212.246027 C0.268897899,244.324442 -3.72454637,305.902292 8.9100249,344.313504 C30.3346164,409.447851 79.283158,470.255245 137.239598,505.150715 C163.637955,521.045118 219.417892,526.166805 247.101614,527.457414 C280.808577,529.028825 314.675091,529.948754 348.328504,527.457414 C358.625942,526.695101 368.160757,521.526236 377.807661,517.781329 C409.899233,505.323452 444.5888,489.932261 468.113657,463.196393 C504.457954,421.891303 501.533272,343.677487 500.459096,292.867756 C499.618472,253.105322 470.154042,189.036947 463.415133,171.270393 C452.208837,141.725957 432.315341,94.6198925 410.280086,67.363277 C374.872491,23.5656783 287.781561,2.42060424 236.525399,0" id="Path-17" stroke-width="30"></path>
            <path d="M200.774486,166.17743 C182.205426,166.17743 187.752783,166.719959 169.933389,175.442974 C119.455645,200.153026 92.364804,218.989263 89.8268502,278.08658 C88.6661419,305.114161 85.5971471,353.818413 107.86568,377.871838 C123.840147,395.126708 147.520238,403.193541 168.311019,413.071272 C219.092783,437.197764 245.175237,432.268108 311.786375,429.980489 C328.286501,429.413827 353.922426,422.365458 366.111683,410.67861 C368.592642,408.29991 367.724928,403.94166 369.227919,400.85103 C378.10224,382.602592 386.410686,372.566934 391.555589,350.589065 C394.602909,337.571598 396.278293,324.22421 397.290105,310.893352 C399.507734,281.675606 397.281411,255.793733 379.684979,231.453753 C374.004616,223.596483 365.840175,219.850194 358.947553,213.950385 C353.697664,209.456689 343.727679,199.825815 337.567605,193.636843 C318.664745,174.645306 311.772928,166.363974 285.201991,156.879769 C279.515294,154.849965 273.436328,151.532729 266.649143,153.716316 C265.604275,154.052474 266.649143,155.910928 266.649143,157.008234" id="Path-18" stroke-width="15"></path>
            <path d="M224.773734,48 C224.773734,69.8072968 223.032833,91.6828268 224.773734,113.42189 C226.578652,135.960346 240.480055,166.103245 245.259304,188.554269 C252.396388,222.081473 254.981956,255.487842 262,289" id="Path-19" stroke-width="15"></path>
        </g>
    </g>
</svg>