<?xml version="1.0" encoding="UTF-8"?>
<svg width="3489px" height="556px" viewBox="0 0 3489 556" version="1.1" xmlns="http://www.w3.org/2000/svg" xmlns:xlink="http://www.w3.org/1999/xlink">
    <!-- Generator: Sketch 51.1 (57501) - http://www.bohemiancoding.com/sketch -->
    <title>space</title>
    <desc>Created with Sketch.</desc>
    <defs></defs>
    <g id="Page-1" stroke="none" stroke-width="1" fill="none" fill-rule="evenodd">
        <g id="space" transform="translate(15.000000, 15.000000)">
            <path d="M852.597313,267.673517 C852.597313,273.15206 851.642733,278.22932 849.733544,282.90545 C847.824354,287.58158 845.154296,291.635088 841.72329,295.066095 C837.462201,299.327184 832.426444,302.522953 826.615868,304.653497 C820.805292,306.784042 813.473008,307.849298 804.618798,307.849298 L788.183251,307.849298 L788.183251,353.918634 L771.747704,353.918634 L771.747704,230.320001 L805.28286,230.320001 C812.698262,230.320001 818.979123,230.942553 824.125633,232.187677 C829.272144,233.4328 833.837528,235.383464 837.821923,238.039728 C842.525722,241.19404 846.164195,245.123037 848.73745,249.826837 C851.310705,254.530637 852.597313,260.47947 852.597313,267.673517 Z M835.497704,268.088556 C835.497704,263.827467 834.750641,260.119821 833.256493,256.965509 C831.762345,253.811196 829.493487,251.23798 826.449852,249.245782 C823.793589,247.530279 820.763834,246.299009 817.360497,245.551935 C813.957159,244.804861 809.654631,244.431329 804.452782,244.431329 L788.183251,244.431329 L788.183251,293.820978 L802.045555,293.820978 C808.686214,293.820978 814.081667,293.226094 818.232079,292.03631 C822.38249,290.846525 825.758107,288.951199 828.359032,286.350274 C830.959956,283.694011 832.799945,280.899443 833.879051,277.966485 C834.958158,275.033528 835.497704,271.740918 835.497704,268.088556 Z M959.622048,353.918634 L944.016579,353.918634 L944.016579,224.758478 L959.622048,224.758478 L959.622048,353.918634 Z M1133.38506,353.918634 L1117.8626,353.918634 L1117.8626,344.040704 C1116.47913,344.981464 1114.61147,346.295741 1112.25958,347.983575 C1109.90768,349.671409 1107.62498,351.013355 1105.41143,352.009454 C1102.81051,353.282247 1099.82225,354.347503 1096.44659,355.205255 C1093.07092,356.063007 1089.11425,356.491876 1084.57647,356.491876 C1076.22031,356.491876 1069.13705,353.724977 1063.32647,348.191095 C1057.51589,342.657213 1054.61065,335.601619 1054.61065,327.024103 C1054.61065,319.996073 1056.11861,314.310094 1059.13458,309.965997 C1062.15054,305.6219 1066.45307,302.204779 1072.04229,299.714532 C1077.68685,297.224285 1084.46575,295.536477 1092.3792,294.651056 C1100.29266,293.765635 1108.78704,293.101579 1117.8626,292.658868 L1117.8626,290.251642 C1117.8626,286.709957 1117.24005,283.777044 1115.99493,281.452814 C1114.7498,279.128583 1112.96515,277.30243 1110.64092,275.974298 C1108.42737,274.701505 1105.77115,273.843766 1102.67217,273.401056 C1099.5732,272.958345 1096.33593,272.736993 1092.96026,272.736993 C1088.86519,272.736993 1084.2998,273.276539 1079.26397,274.355646 C1074.22814,275.434753 1069.02637,276.998051 1063.6585,279.045587 L1062.82842,279.045587 L1062.82842,263.191095 C1065.87206,262.361012 1070.27143,261.447936 1076.02666,260.451837 C1081.7819,259.455738 1087.45405,258.957696 1093.04327,258.957696 C1099.57325,258.957696 1105.25923,259.497242 1110.10137,260.576349 C1114.94352,261.655456 1119.13537,263.495444 1122.67706,266.096368 C1126.1634,268.641954 1128.81962,271.934564 1130.64581,275.974298 C1132.47199,280.014032 1133.38506,285.02212 1133.38506,290.998712 L1133.38506,353.918634 Z M1117.8626,331.091485 L1117.8626,305.276056 C1113.10346,305.55275 1107.50049,305.967785 1101.05352,306.521173 C1094.60655,307.074561 1089.50162,307.876962 1085.73858,308.928399 C1081.25613,310.201192 1077.6315,312.179525 1074.86456,314.863458 C1072.09761,317.547391 1070.71416,321.241201 1070.71416,325.945001 C1070.71416,331.257528 1072.31897,335.255697 1075.52862,337.93963 C1078.73827,340.623563 1083.63568,341.965509 1090.221,341.965509 C1095.69954,341.965509 1100.70763,340.900253 1105.24541,338.769708 C1109.7832,336.639164 1113.98889,334.079782 1117.8626,331.091485 Z M1313.12464,261.198907 L1259.00355,388.117853 L1242.31898,388.117853 L1259.5846,349.436212 L1222.64613,261.198907 L1239.57972,261.198907 L1268.0514,329.929376 L1296.7721,261.198907 L1313.12464,261.198907 Z M1591.00712,224.758478 L1531.49052,379.153009 L1517.13017,379.153009 L1576.39774,224.758478 L1591.00712,224.758478 Z M1895.20307,306.438165 C1895.20307,313.964244 1894.12398,320.839989 1891.96577,327.065606 C1889.80755,333.291224 1886.76396,338.562167 1882.83491,342.878595 C1879.18255,346.973667 1874.88002,350.141767 1869.92719,352.382989 C1864.97437,354.624211 1859.73109,355.744806 1854.19721,355.744806 C1849.38274,355.744806 1845.02487,355.219095 1841.12348,354.167657 C1837.2221,353.11622 1833.25159,351.483749 1829.21186,349.270196 L1829.21186,388.117853 L1813.60639,388.117853 L1813.60639,261.198907 L1829.21186,261.198907 L1829.21186,270.910821 C1833.36227,267.424476 1838.0245,264.505397 1843.19868,262.153497 C1848.37286,259.801597 1853.89282,258.625665 1859.75874,258.625665 C1870.93718,258.625665 1879.63908,262.845187 1885.86469,271.284356 C1892.09031,279.723526 1895.20307,291.441345 1895.20307,306.438165 Z M1879.09956,306.853204 C1879.09956,295.674763 1877.1904,287.318727 1873.37202,281.784845 C1869.55364,276.250963 1863.68781,273.484064 1855.77436,273.484064 C1851.29192,273.484064 1846.78187,274.452478 1842.24409,276.389337 C1837.7063,278.326196 1833.36227,280.871743 1829.21186,284.026056 L1829.21186,336.570001 C1833.63897,338.562198 1837.44345,339.917979 1840.62544,340.637384 C1843.80742,341.356788 1847.41822,341.716485 1851.45795,341.716485 C1860.14615,341.716485 1866.92505,338.783572 1871.79487,332.917657 C1876.66468,327.051743 1879.09956,318.363678 1879.09956,306.853204 Z M2062.40847,353.918634 L2046.88601,353.918634 L2046.88601,344.040704 C2045.50254,344.981464 2043.63488,346.295741 2041.28298,347.983575 C2038.93108,349.671409 2036.64839,351.013355 2034.43484,352.009454 C2031.83391,353.282247 2028.84566,354.347503 2025.46999,355.205255 C2022.09433,356.063007 2018.13766,356.491876 2013.59988,356.491876 C2005.24372,356.491876 1998.16045,353.724977 1992.34988,348.191095 C1986.5393,342.657213 1983.63406,335.601619 1983.63406,327.024103 C1983.63406,319.996073 1985.14202,314.310094 1988.15798,309.965997 C1991.17395,305.6219 1995.47648,302.204779 2001.0657,299.714532 C2006.71026,297.224285 2013.48916,295.536477 2021.40261,294.651056 C2029.31606,293.765635 2037.81044,293.101579 2046.88601,292.658868 L2046.88601,290.251642 C2046.88601,286.709957 2046.26346,283.777044 2045.01833,281.452814 C2043.77321,279.128583 2041.98856,277.30243 2039.66433,275.974298 C2037.45078,274.701505 2034.79455,273.843766 2031.69558,273.401056 C2028.59661,272.958345 2025.35933,272.736993 2021.98367,272.736993 C2017.88859,272.736993 2013.32321,273.276539 2008.28738,274.355646 C2003.25154,275.434753 1998.04977,276.998051 1992.68191,279.045587 L1991.85183,279.045587 L1991.85183,263.191095 C1994.89546,262.361012 1999.29483,261.447936 2005.05007,260.451837 C2010.80531,259.455738 2016.47745,258.957696 2022.06667,258.957696 C2028.59665,258.957696 2034.28263,259.497242 2039.12478,260.576349 C2043.96693,261.655456 2048.15878,263.495444 2051.70046,266.096368 C2055.18681,268.641954 2057.84303,271.934564 2059.66921,275.974298 C2061.49539,280.014032 2062.40847,285.02212 2062.40847,290.998712 L2062.40847,353.918634 Z M2046.88601,331.091485 L2046.88601,305.276056 C2042.12687,305.55275 2036.5239,305.967785 2030.07693,306.521173 C2023.62996,307.074561 2018.52503,307.876962 2014.76199,308.928399 C2010.27954,310.201192 2006.6549,312.179525 2003.88796,314.863458 C2001.12102,317.547391 1999.73757,321.241201 1999.73757,325.945001 C1999.73757,331.257528 2001.34237,335.255697 2004.55203,337.93963 C2007.76168,340.623563 2012.65909,341.965509 2019.24441,341.965509 C2024.72295,341.965509 2029.73104,340.900253 2034.26882,338.769708 C2038.80661,336.639164 2043.01229,334.079782 2046.88601,331.091485 Z M2240.15586,353.918634 L2224.55039,353.918634 L2224.55039,343.625665 C2219.2932,347.776076 2214.25745,350.958011 2209.44297,353.171564 C2204.62849,355.385116 2199.31605,356.491876 2193.50547,356.491876 C2183.76584,356.491876 2176.18453,353.517459 2170.76133,347.568536 C2165.33813,341.619613 2162.62656,332.890046 2162.62656,321.379571 L2162.62656,261.198907 L2178.23203,261.198907 L2178.23203,313.991876 C2178.23203,318.695676 2178.45338,322.721514 2178.8961,326.069513 C2179.33881,329.417511 2180.27955,332.281252 2181.71836,334.660821 C2183.21251,337.095729 2185.14934,338.866545 2187.52891,339.973321 C2189.90848,341.080098 2193.3671,341.633478 2197.90488,341.633478 C2201.94462,341.633478 2206.35782,340.582056 2211.14463,338.479181 C2215.93144,336.376306 2220.39998,333.692413 2224.55039,330.427423 L2224.55039,261.198907 L2240.15586,261.198907 L2240.15586,353.918634 Z M2407.94231,327.190118 C2407.94231,335.656957 2404.44219,342.601875 2397.44183,348.025079 C2390.44147,353.448283 2380.88183,356.159845 2368.76263,356.159845 C2361.90061,356.159845 2355.60592,355.343609 2349.87835,353.711114 C2344.15078,352.078619 2339.35021,350.293969 2335.47649,348.35711 L2335.47649,330.842462 L2336.30657,330.842462 C2341.23173,334.550163 2346.71019,337.496911 2352.74212,339.682794 C2358.77405,341.868677 2364.55687,342.961603 2370.09075,342.961603 C2376.95277,342.961603 2382.32055,341.854843 2386.19427,339.64129 C2390.06798,337.427737 2392.00481,333.941444 2392.00481,329.182306 C2392.00481,325.529944 2390.95339,322.763044 2388.85052,320.881524 C2386.74764,319.000005 2382.70797,317.395203 2376.73138,316.067071 C2374.51782,315.569022 2371.62641,314.987973 2368.05706,314.323907 C2364.48771,313.659841 2361.2366,312.940448 2358.30364,312.165704 C2350.16884,310.00749 2344.39985,306.83939 2340.99651,302.66131 C2337.59318,298.483229 2335.89153,293.35063 2335.89153,287.26336 C2335.89153,283.444982 2336.6801,279.848013 2338.25726,276.472345 C2339.83441,273.096677 2342.22778,270.080756 2345.43743,267.424493 C2348.53641,264.823569 2352.47924,262.762229 2357.26604,261.240411 C2362.05285,259.718594 2367.4068,258.957696 2373.32806,258.957696 C2378.86194,258.957696 2384.46491,259.635587 2390.13714,260.991388 C2395.80937,262.347189 2400.52693,263.993494 2404.28997,265.930353 L2404.28997,282.614923 L2403.45989,282.614923 C2399.4755,279.681966 2394.63342,277.205591 2388.93353,275.185724 C2383.23363,273.165857 2377.64449,272.155939 2372.16595,272.155939 C2366.46605,272.155939 2361.65164,273.248864 2357.72259,275.434747 C2353.79353,277.62063 2351.82903,280.871737 2351.82903,285.188165 C2351.82903,289.006544 2353.0188,291.884119 2355.39837,293.820978 C2357.7226,295.757836 2361.48558,297.334969 2366.68743,298.552423 C2369.56505,299.216489 2372.78849,299.880545 2376.35784,300.54461 C2379.9272,301.208676 2382.90161,301.817394 2385.28118,302.370782 C2392.53057,304.030947 2398.1197,306.880853 2402.04876,310.920587 C2405.97782,315.01566 2407.94231,320.438782 2407.94231,327.190118 Z M2578.71705,309.177423 L2510.40162,309.177423 C2510.40162,314.877321 2511.25936,319.843906 2512.97486,324.077325 C2514.69036,328.310745 2517.04223,331.783204 2520.03053,334.494806 C2522.90814,337.151069 2526.32526,339.143237 2530.28199,340.471368 C2534.23872,341.7995 2538.59658,342.463556 2543.35572,342.463556 C2549.66435,342.463556 2556.01438,341.204616 2562.40601,338.6867 C2568.79765,336.168784 2573.3492,333.692409 2576.0608,331.257501 L2576.89088,331.257501 L2576.89088,348.274103 C2571.63369,350.487655 2566.2659,352.341478 2560.78736,353.835626 C2555.30882,355.329774 2549.55367,356.076837 2543.52174,356.076837 C2528.13754,356.076837 2516.1292,351.912653 2507.49635,343.584161 C2498.86349,335.255669 2494.54713,323.427174 2494.54713,308.098321 C2494.54713,292.935485 2498.68364,280.899473 2506.95679,271.989923 C2515.22995,263.080373 2526.1177,258.625665 2539.62037,258.625665 C2552.12694,258.625665 2561.76959,262.277972 2568.54859,269.582696 C2575.3276,276.88742 2578.71705,287.263293 2578.71705,300.710626 L2578.71705,309.177423 Z M2563.52662,297.224298 C2563.47128,289.034153 2561.40994,282.697953 2557.34254,278.215509 C2553.27513,273.733065 2547.09111,271.491876 2538.79029,271.491876 C2530.43413,271.491876 2523.77974,273.954417 2518.82691,278.879571 C2513.87409,283.804726 2511.06569,289.919574 2510.40162,297.224298 L2563.52662,297.224298 Z" id="Play-/-pause" fill="#12B1E6" transform="translate(1675.232376, 306.438165) rotate(358.000000) translate(-1675.232376, -306.438165) "></path>
            <path d="M6.6470959,56.5711165 C6.6470959,740.16537 -9.14732436,-155.824326 11.6885489,276.122572 C14.8036817,340.702152 6.0527495,452.537935 5.5421199,517.172775 C5.53716237,517.800293 6.86611942,252.286013 6.6470959,252.883947 C4.94884838,425.775176 4.58052305,513.871452 5.5421199,517.172775 C35.0328386,509.694139 46.8756626,500.368708 70.8508051,500.05785 C150.33118,499.02732 229.833352,499.353577 309.318436,500.05785 C316.485875,500.121356 323.501904,502.008023 330.658285,502.359857 C354.738266,503.543717 378.885171,503.478005 402.965152,504.661865 C425.718325,505.780494 448.361923,508.374328 471.128358,509.26588 C549.076082,512.318375 627.106122,513.580791 705.060984,516.492181 C713.599889,516.811085 722.008844,518.575203 730.544493,518.954328 C758.983867,520.21751 787.486698,520.167618 815.926909,521.416475 C933.916386,526.597592 649.718302,511.187294 605.598809,511.627939 C573.235925,511.951165 678.982294,530.199042 1122.3966,524.018744 C1179.48247,523.223083 1235.95527,514.427462 1292.81613,511.627939 C1352.65293,508.681898 1412.63977,508.706121 1472.51285,506.383366 C1525.60083,504.323836 1578.54246,500.522992 1631.51429,498.376384 C1664.65052,497.033585 1697.90676,497.921722 1730.98515,495.754097 C1903.7534,484.432604 2074.86089,461.137332 2247.65351,450.034228 C2350.75813,443.409053 2574.49231,445.623391 2608.86556,444.929777 C2698.27311,443.125632 2787.61937,439.422123 2876.96036,435.921921 C2882.85347,435.691041 2888.58019,433.802865 2894.47883,433.740019 C3169.20346,430.812993 3254.68032,436.717415 3253.77354,435.921921 C3251.85993,434.243174 2876.48221,429.143951 3162.07564,433.740019 C3260.70088,435.327199 3360.01823,441.625732 3458.63814,439.805308 C3459.20594,439.794827 3446.79094,427.363278 3446.2532,426.353578 C3442.11722,418.587628 3436.86557,411.0586 3434.78907,402.692945 C3431.47429,389.338561 3430.85463,375.549294 3430.25407,361.89737 C3429.34127,341.147771 3430.74438,320.363444 3430.25407,299.603047 C3430.06874,291.755882 3429.52634,283.889805 3428.22828,276.122572 C3425.57754,260.261356 3419.52836,244.800208 3418.42161,228.801306 C3416.24782,197.37732 3417.92358,165.836756 3418.42161,134.35895 C3418.48416,130.405782 3418.6126,126.324048 3420.1021,122.588686 C3421.97858,117.882866 3425.97483,114.012153 3428.34338,109.477252 C3429.30459,107.636882 3428.94577,105.382857 3430.02386,103.59212 C3432.74835,99.066671 3437.63886,95.5486696 3439.62334,90.7409135 C3444.77915,78.2501005 3446.66069,64.8908046 3451.22559,52.2273285 C3453.13161,46.9398261 3440.84398,39.7539669 3434.78907,41.5580246 C3431.44265,42.5550894 3433.79089,39.620121 3430.25407,39.6763838 C3400.18687,40.1546841 3369.82016,39.0195327 3339.83474,37.0340796 C3304.25991,34.6785297 3265.52346,37.796309 3230.39153,32.3900298 C3204.89777,28.4669203 3180.06666,21.7224367 3154.65464,17.4169729 C3126.48261,12.6438908 3099.09192,8.72302719 3070.68307,5.16628994 C3057.07515,3.4626028 3017.28948,5.33414124 3003.54259,5.16628994 C2921.05352,4.15908777 2863.59136,-1.4872465 2781.17275,1.64321772 C2742.83234,3.09948225 2705.27207,11.6883723 2667.13002,15.3751924 C1410.36113,136.854806 3351.53919,-57.2871755 2418.30324,39.6763838 C2405.26987,41.0305554 2392.04671,40.4333714 2378.98451,41.5580246 C2287.17941,49.4624284 2197.35768,57.9213635 2105.50295,62.1960215 C2051.0825,64.7285947 1996.20983,65.9785436 1941.89744,71.6042258 C1856.90264,80.4079956 1771.79906,92.0572544 1686.18758,96.1456266 C1473.62823,106.296389 1283.80012,103.771036 1062.77394,104.633028 C843.778506,105.4871 1749.38489,95.960559 1730.98515,96.1456266 C1721.81266,96.237885 1483.88202,123.769525 760.793211,106.374547 C690.539053,104.684478 623.57359,84.0627338 555.682042,83.734804 C422.200407,83.0900609 284.272059,96.2946346 151.836337,72.7452207 L6.6470959,56.5711165 Z" id="Path-4" stroke="#12B1E6" stroke-width="30"></path>
        </g>
    </g>
</svg>