<?xml version="1.0" encoding="UTF-8"?>
<svg width="882px" height="929px" viewBox="0 0 882 929" version="1.1" xmlns="http://www.w3.org/2000/svg" xmlns:xlink="http://www.w3.org/1999/xlink">
    <!-- Generator: Sketch 51.1 (57501) - http://www.bohemiancoding.com/sketch -->
    <title>stop</title>
    <desc>Created with Sketch.</desc>
    <defs></defs>
    <g id="Page-1" stroke="none" stroke-width="1" fill="none" fill-rule="evenodd">
        <g id="stop" transform="translate(15.000000, 15.000000)">
            <path d="M8.94062504,45.548486 C8.94062504,262.000277 22.0158258,478.894891 8.94062504,694.903859 C2.58082298,799.971025 2.58082298,782.85357 1.50600848,811.69226 C1.18180242,820.391136 -1.7141918,851.161842 1.50600848,855.718588 C7.29333283,863.907943 18.8251548,849.423674 27.774987,848.864189 C71.540816,846.128238 129.423578,847.803259 174.016648,855.982218 C184.4581,857.897319 194.284951,863.175138 204.581183,866.000185 C237.454336,875.019814 270.162613,885.312192 303.489119,891.506455 C325.915545,895.674765 348.730035,896.394367 371.419486,897.009746 C429.075296,898.573478 488.863523,902.490952 546.050369,891.671225 C553.608263,890.241274 561.237954,889.290689 568.877395,888.771287 C575.475304,888.322698 582.181407,890.049772 588.703039,888.771287 C609.388351,884.716187 628.02209,873.273175 648.978505,869.493292 C687.81389,862.4886 645.294213,871.904563 694.357201,867.054708 C712.53229,865.258108 730.513274,861.246117 748.657438,859.046925 C775.957667,855.737958 803.290207,859.4959 829.74983,852.192527 C831.404423,851.735827 833.169356,852.52921 834.843919,852.192527 L836.551127,850.116435 C839.384306,849.546803 843.567929,852.970564 845.169775,850.116435 C850.11594,841.303484 841.145589,825.011552 839.249617,818.447797 C829.007582,782.990408 827.175222,779.55494 826.252806,745.224369 C824.744666,689.094234 828.314499,644.783512 833.439602,585.826656 C838.029445,533.027193 847.647038,498.610034 849.245046,437.204848 C852.028008,330.266574 851.096005,223.20166 849.245046,116.234468 C849.005906,102.414498 835.2829,79.4497241 831.484573,69.0775262 C828.368291,60.5678067 825.019541,43.6760918 823.912279,34.7066734 C823.233493,29.2081438 827.472418,21.6014029 823.912279,18.0320315 C813.723354,7.81668439 795.289818,26.8449916 785.913127,27.1931984 C767.014433,27.8950082 748.074998,26.0884056 729.189757,27.1931984 C719.280657,27.7728839 709.492424,30.1435375 699.726646,32.2351356 C689.324717,34.4629822 679.282995,39.7274223 668.721542,40.1440566 C612.258301,42.3714514 555.727583,41.1411771 499.23982,40.1440566 C487.861498,39.9432068 476.440539,38.9133763 465.233333,36.5520883 C373.609903,17.2476062 397.525206,12.7663531 333.062372,10.3537873 C265.655968,7.8310564 197.682366,-4.04529549 130.179946,1.42329725 C104.077368,3.53795288 79.4916155,14.1434786 52.8048628,14.1434786 L8.94062504,45.548486 Z" id="Path-15" stroke="#12B1E6" stroke-width="30"></path>
            <path d="M221.911208,257.616646 C221.911208,374.878828 221.654528,260.289122 220.00006,673.624309 C219.968085,681.612564 232.805368,667.04238 239.569832,665.256775 C253.001788,661.711162 266.596308,658.069375 280.347506,657.694485 C359.19769,655.544844 438.090664,658.346781 516.959418,657.694485 C524.186324,657.634713 531.341279,655.720217 538.5671,655.558838 C574.207007,654.762867 611.212518,666.474456 645.503671,654.823615 C655.129035,651.55328 645.499739,630.838941 646.420243,618.914406 C651.082328,558.520064 662.303825,496.800028 656.249008,435.598885 C642.140483,292.992135 633.090443,332.724051 629.736694,242.492065 C629.72485,242.173395 629.107302,243.441557 627.88405,246.296551 C626.868223,246.478013 628.62587,243.458949 627.88405,242.608767 C627.109364,241.720919 625.679727,242.188333 624.6663,242.608767 C620.883377,244.178167 617.632834,247.553152 613.706447,248.490549 C606.320855,250.253805 598.710724,250.367515 591.182194,250.602855 C576.171145,251.072097 561.117063,251.789976 546.133689,250.602855 C489.549536,246.119737 456.096259,235.898217 402.953547,238.384155 C381.390134,239.392859 359.906552,242.30281 338.471779,245.292914 C325.266397,247.135035 315.803294,259.931598 302.345218,260.289122 C282.945986,260.804479 263.537198,260.289122 244.133188,260.289122 L221.911208,257.616646 Z" id="Path-16" stroke="#979797" fill="#12B1E6"></path>
        </g>
    </g>
</svg>